<?xml version="1.0" encoding="utf-8" standalone="yes"?>
<svg xmlns="http://www.w3.org/2000/svg" xmlns:xlink="http://www.w3.org/1999/xlink" version="1.1" width="15" height="15">
	<defs>
		<clipPath id="clip004">
			<path d="M0,0 L14.11769,0 L14.11769,14.11769 L0,14.11769 Z" clip-rule="evenodd" />
		</clipPath>
	</defs>
	<g transform="translate(0.1666667,0)">
		<g transform="translate(-1.470593,-3.088245)" clip-path="url(#clip004)">
			<g transform="matrix(0.1470593,0,0,0.1470593,0,0)">
				<path d="M10,21 L10,75 L86,75 L86,21 ZM50.122,55.464 C48.948,56.63101 47.052,56.63101 45.878,55.464 L13.431,23.017 L13.431,23.017 C13.4271,23.0131 13.4272,23.0067 13.4311,23.0029 L13.4311,23.0029 C13.433,23.0011 13.4354,23 13.438,23 L82.562,23 L82.562,23 C82.5675,23.0001 82.5719,23.0046 82.5719,23.0101 L82.5719,23.0101 C82.5718,23.0127 82.5708,23.0152 82.56901,23.017 ZM35.586,48 L12.017,71.56901 L12.017,71.56901 C12.0131,71.5729 12.0067,71.57281 12.0029,71.5689 L12.0029,71.5689 C12.0011,71.567 12,71.5646 12,71.562 L12,24.438 L12,24.438 C12.0001,24.4325 12.0046,24.4281 12.0101,24.4281 L12.0101,24.4281 C12.0127,24.4282 12.0152,24.4292 12.017,24.431 ZM37,49.414 L44.464,56.878 L44.464,56.878 C46.4164,58.8309 49.5822,58.8313 51.5351,56.87891 L51.5351,56.87891 C51.5354,56.8786 51.5357,56.8783 51.536,56.878 L59,49.414 L82.56901,72.983 L82.56901,72.983 C82.5729,72.9869 82.57281,72.9933 82.5689,72.9971 L82.5689,72.9971 C82.567,72.99891 82.5646,73 82.562,73 L13.438,73 L13.438,73 C13.4325,72.9999 13.4281,72.9954 13.4281,72.98991 L13.4281,72.98991 C13.4282,72.9873 13.4292,72.9848 13.431,72.983 ZM60.414,48 L83.983,24.431 L83.983,24.431 C83.9869,24.4271 83.9933,24.4272 83.9971,24.4311 L83.9971,24.4311 C83.99891,24.433 84,24.4354 84,24.438 L84,71.562 L84,71.562 C83.9999,71.5675 83.9954,71.5719 83.98991,71.5719 L83.98991,71.5719 C83.9873,71.5718 83.9848,71.5708 83.983,71.56901 Z" fill="#000000" fill-rule="nonzero" />
			</g>
		</g>
	</g>
</svg>