<?xml version="1.0" encoding="utf-8" standalone="yes"?>
<svg xmlns="http://www.w3.org/2000/svg" xmlns:xlink="http://www.w3.org/1999/xlink" version="1.1" width="15" height="15">
	<defs>
		<clipPath id="clip003">
			<path d="M0,0 L13.83139,0 L13.83139,13.83139 L0,13.83139 Z" clip-rule="evenodd" />
		</clipPath>
	</defs>
	<g transform="translate(0.1666667,0)">
		<g transform="translate(-3.313771,-0.5763081)" clip-path="url(#clip003)">
			<g transform="matrix(0.1470374,0,0,0.1470374,0,0)">
				<path d="M29.39599,13.71813 L27.43626,13.71813 L27.43626,80.3706 L66.63091,80.3706 L66.63091,13.71813 L29.39599,13.71813 ZM64.67117,78.41087 L29.39599,78.41087 L29.39599,15.67786 L64.67117,15.67786 Z" fill="#000000" fill-rule="nonzero" />
				<path d="M69.57051,3.919465 L24.49666,3.919465 L24.49666,3.919465 C23.41567,3.922689 22.54016,4.79821 22.53693,5.879198 L22.53693,88.21247 L22.53693,88.21247 C22.54065,89.29325 23.41586,90.16848 24.49666,90.17221 L69.57051,90.17221 L69.57051,90.17221 C70.65101,90.16788 71.52592,89.29296 71.53024,88.21247 L71.53024,5.879198 L71.53024,5.879198 C71.52653,4.798435 70.6513,3.923228 69.57051,3.919465 ZM69.57051,88.21247 L24.49666,88.21247 L24.49666,5.879198 L69.57051,5.879198 Z" fill="#000000" fill-rule="nonzero" />
				<path d="M43.11412,10.77853 L51.93292,10.77853 L51.93292,10.77853 C52.4741,10.77853 52.91278,10.33984 52.91278,9.798663 L52.91278,9.798663 C52.91278,9.257493 52.4741,8.818797 51.93292,8.818797 L43.11412,8.818797 L43.11412,8.818797 C42.57294,8.818797 42.13425,9.257493 42.13425,9.798663 L42.13425,9.798663 C42.13425,10.33984 42.57294,10.77853 43.11412,10.77853 Z" fill="#000000" fill-rule="nonzero" />
			</g>
		</g>
	</g>
</svg>