<?xml version="1.0" encoding="utf-8" standalone="yes"?>
<svg xmlns="http://www.w3.org/2000/svg" xmlns:xlink="http://www.w3.org/1999/xlink" version="1.1" width="15" height="15">
	<defs>
		<clipPath id="clip001">
			<path d="M0,0 L15.52945,0 L15.52945,15.52945 L0,15.52945 Z" clip-rule="evenodd" />
		</clipPath>
	</defs>
	<g transform="translate(0.1666667,0)">
		<g transform="translate(-1.454707,-2.911921)" clip-path="url(#clip001)">
			<g transform="matrix(0.1617651,0,0,0.1617651,0,0)">
				<path d="M19.322,45.189 C19.182,45.189 19.04,45.183 18.897,45.171 L18.897,45.171 C17.3776,45.0461 15.9993,44.2317 15.157,42.961 L9.856999,35.167 L9.856999,35.167 C9.08348,34.0426 8.81318,32.6469 9.111,31.315 L9.111,31.315 C9.415441,29.9475 10.2684,28.7652 11.47,28.045 L11.47,28.045 C34.1145,14.6529 62.2545,14.6529 84.899,28.045 L84.899,28.045 L84.899,28.045 C86.1003,28.7656 86.9531,29.9477 87.258,31.315 L87.258,31.315 C87.556,32.6478 87.2849,34.0444 86.51,35.169 L81.21,42.969 L81.21,42.969 C79.7138,45.2432 76.6573,45.8738 74.3831,44.3776 L74.3831,44.3776 C74.0913,44.1856 73.8208,43.9632 73.576,43.714 L68.676,38.814 L68.676,38.814 C67.6931,37.9165 67.14811,36.6366 67.182,35.306 L67.182,30.928 L67.182,30.928 C54.8336,26.9124 41.5304,26.9124 29.182,30.928 L29.182,35.305 L29.182,35.305 C29.1752,36.6251 28.6418,37.8879 27.7,38.813 L22.8,43.713 L22.8,43.713 C21.8938,44.6635 20.6353,45.1976 19.322,45.189 ZM48.19,20 C35.6322,19.9872 23.3031,23.3595 12.5,29.762 L12.5,29.762 C11.7692,30.1954 11.2513,30.9129 11.07,31.743 L11.07,31.743 C10.8917,32.5382 11.053,33.3717 11.515,34.043 L16.815,41.848 L16.815,41.848 C17.3206,42.6142 18.1501,43.1056 19.065,43.181 L19.065,43.181 C19.9233,43.2673 20.773,42.9503 21.365,42.323 L26.285,37.401 L26.285,37.401 C26.8542,36.8521 27.1808,36.0987 27.192,35.308 L27.192,29.482 L27.876,29.254 L27.876,29.254 C41.0558,24.806 55.3312,24.806 68.51101,29.254 L69.19401,29.482 L69.19401,35.305 L69.19401,35.305 C69.16761,36.0805 69.4818,36.8288 70.05401,37.353 L75,42.3 L75,42.3 C76.1271,43.4611 77.9821,43.4887 79.1432,42.3616 L79.1432,42.3616 C79.3011,42.2083 79.4413,42.0377 79.561,41.853 L84.861,34.042 L84.861,34.042 C85.3239,33.3711 85.4859,32.5375 85.308,31.742 L85.308,31.742 C85.1269,30.9107 84.6077,30.1925 83.875,29.76 L83.875,29.76 C73.0734,23.3586 60.74601,19.987 48.19,20 Z" fill="#000000" fill-rule="nonzero" />
				<path d="M79.192,77.021 L17.192,77.021 L17.192,58.421 L17.192,58.421 C17.166,56.0242 18.0997,53.7165 19.785,52.012 L31.189,40.6 L31.189,36 L31.189,36 C31.189,33.7909 32.9799,32 35.189,32 L36,32 L36,32 C38.2091,32 40,33.7909 40,36 L40,39.011 L56.188,39.011 L56.188,36 L56.188,36 C56.188,33.7909 57.97891,32 60.188,32 L61.188,32 L61.188,32 C63.3971,32 65.188,33.7909 65.188,36 L65.188,40.6 L76.6,51.905 L76.6,51.905 C78.27691,53.6164 79.21111,55.92 79.2,58.316 ZM19.192,75.021 L77.192,75.021 L77.192,58.321 L77.192,58.321 C77.2058,56.4572 76.4848,54.6629 75.18501,53.327 L63.191,41.428 L63.191,36 L63.191,36 C63.191,34.8954 62.2956,34 61.191,34 L60.191,34 L60.191,34 C59.0864,34 58.191,34.8954 58.191,36 L58.191,41.011 L38,41.011 L38,36 L38,36 C38,34.8954 37.1046,34 36,34 L35.189,34 L35.189,34 C34.0844,34 33.189,34.8954 33.189,36 L33.189,41.425 L21.196,53.425 L21.196,53.425 C19.8771,54.7508 19.1528,56.55521 19.189,58.425 Z" fill="#000000" fill-rule="nonzero" />
				<path d="M56.191,50.013 L56.191,50.013 L56.191,50.013 L56.191,50.013 L56.191,50.013 M58.191,48.013 L54.191,48.013 L54.191,52.013 L58.191,52.013 L58.191,48.013 Z" fill="#000000" fill-rule="nonzero" />
				<path d="M56.191,58.01601 L56.191,58.01601 M58.191,56.01601 L54.191,56.01601 L54.191,60.01601 L58.191,60.01601 L58.191,56.01601 Z" fill="#000000" fill-rule="nonzero" />
				<path d="M56.191,66.018 L56.191,66.018 M58.191,64.018 L54.191,64.018 L54.191,68.018 L58.191,68.018 L58.191,64.018 Z" fill="#000000" fill-rule="nonzero" />
				<path d="M48.191,50.013 L48.191,50.013 L48.191,50.013 L48.191,50.013 L48.191,50.013 M50.191,48.013 L46.191,48.013 L46.191,52.013 L50.191,52.013 L50.191,48.013 Z" fill="#000000" fill-rule="nonzero" />
				<path d="M48.191,58.01601 L48.191,58.01601 M50.191,56.01601 L46.191,56.01601 L46.191,60.01601 L50.191,60.01601 L50.191,56.01601 Z" fill="#000000" fill-rule="nonzero" />
				<path d="M48.191,66.018 L48.191,66.018 M50.191,64.018 L46.191,64.018 L46.191,68.018 L50.191,68.018 L50.191,64.018 Z" fill="#000000" fill-rule="nonzero" />
				<path d="M40.19,50.013 L40.19,50.013 L40.19,50.013 L40.19,50.013 L40.19,50.013 M42.19,48.013 L38.19,48.013 L38.19,52.013 L42.19,52.013 L42.19,48.013 Z" fill="#000000" fill-rule="nonzero" />
				<path d="M40.19,58.01601 L40.19,58.01601 M42.19,56.01601 L38.19,56.01601 L38.19,60.01601 L42.19,60.01601 L42.19,56.01601 Z" fill="#000000" fill-rule="nonzero" />
				<path d="M40.19,66.018 L40.19,66.018 M42.19,64.018 L38.19,64.018 L38.19,68.018 L42.19,68.018 L42.19,64.018 Z" fill="#000000" fill-rule="nonzero" />
			</g>
		</g>
	</g>
</svg>