<?xml version="1.0" encoding="utf-8" standalone="yes"?>
<svg xmlns="http://www.w3.org/2000/svg" xmlns:xlink="http://www.w3.org/1999/xlink" version="1.1" width="15" height="15">
	<defs>
		<clipPath id="clip005">
			<path d="M0,0 L13.83139,0 L13.83139,13.83139 L0,13.83139 Z" clip-rule="evenodd" />
		</clipPath>
	</defs>
	<g transform="translate(0.1666667,0)">
		<g transform="translate(-3.313771,-0.576308)" clip-path="url(#clip005)">
			<g transform="matrix(0.144077,0,0,0.144077,0,0)">
				<path d="M30,14 L28,14 L28,82.022 L68,82.022 L68,14 L30,14 ZM66,80.022 L30,80.022 L30,16 L66,16 Z" fill="#000000" fill-rule="nonzero" />
				<path d="M71,4 L25,4 L25,4 C23.8968,4.00329 23.0033,4.8968 23,6 L23,90.025 L23,90.025 C23.0038,91.128 23.897,92.0212 25,92.025 L71,92.025 L71,92.025 C72.10271,92.0206 72.9956,91.12769 73,90.025 L73,6 L73,6 C72.9962,4.89703 72.103,4.00384 71,4 ZM71,90.025 L25,90.025 L25,6 L71,6 Z" fill="#000000" fill-rule="nonzero" />
				<path d="M44,11 L53,11 L53,11 C53.5523,11 54,10.5523 54,10 L54,10 C54,9.44771 53.5523,9 53,9 L44,9 L44,9 C43.4477,9 43,9.44771 43,10 L43,10 C43,10.5523 43.4477,11 44,11 Z" fill="#000000" fill-rule="nonzero" />
			</g>
		</g>
	</g>
</svg>