<?xml version="1.0" encoding="utf-8" standalone="yes"?>
<svg xmlns="http://www.w3.org/2000/svg" xmlns:xlink="http://www.w3.org/1999/xlink" version="1.1" width="15" height="15">
	<defs>
		<clipPath id="clip002">
			<path d="M0,0 L13.45491,0 L13.45491,13.45491 L0,13.45491 Z" clip-rule="evenodd" />
		</clipPath>
	</defs>
	<g transform="translate(0.1666667,0)">
		<g transform="translate(-1.541708,-1.541708)" clip-path="url(#clip002)">
			<g transform="matrix(0.1401553,0,0,0.1401553,-0.00000041,-0.00000041)">
				<path d="M48,11 L48,11 L48,11 C27.6,11 11,27.6 11,48 L11,48 C11,68.4 27.6,85 48,85 L48,85 C68.4,85 85,68.4 85,48 L85,48 C85,27.6 68.4,11 48,11 ZM83,47 L67,47 L67,47 C66.7,33.5 60.8,20.9 51.2,13.2 L51.2,13.2 C68.8,14.8 82.4,29.3 83,47 ZM47,47 L31,47 L31,47 C31.3,33.6 37.3,21.2 47,14 L47,47 ZM47,49 L47,82 L47,82 C37.3,74.7 31.3,62.3 31,49 L47,49 ZM49,49 L65,49 L65,49 C64.7,62.4 58.7,74.8 49,82 L49,49 ZM49,47 L49,14 L49,14 C58.7,21.3 64.7,33.7 65,47 L49,47 ZM44.8,13.2 C35.2,20.9 29.3,33.5 29,47 L13,47 L13,47 C13.6,29.3 27.2,14.8 44.8,13.2 ZM13,49 L29,49 L29,49 C29.3,62.5 35.2,75.1 44.8,82.8 L44.8,82.8 C27.2,81.2 13.6,66.7 13,49 ZM51.2,82.8 C60.8,75.1 66.7,62.5 67,49 L83,49 L83,49 C82.5,66.5 69.2,80.9 51.9,82.8 L51.9,82.8 C51.6,82.8 51.2,82.8 51.2,82.8 Z" fill="#000000" fill-rule="nonzero" />
			</g>
		</g>
	</g>
</svg>